<mxfile host="app.diagrams.net" modified="2023-05-31T11:11:12.098Z" agent="Mozilla/5.0 (Windows NT 10.0; Win64; x64) AppleWebKit/537.36 (KHTML, like Gecko) Chrome/113.0.0.0 Safari/537.36" etag="QdXpitfSB33FVwYcP9Ry" version="21.3.5" type="github">
  <diagram id="6IpWRTOvNhz4fQDFHxwE" name="Page-1">
    <mxGraphModel dx="2269" dy="1320" grid="1" gridSize="10" guides="0" tooltips="1" connect="1" arrows="1" fold="1" page="1" pageScale="1" pageWidth="850" pageHeight="1100" math="0" shadow="0">
      <root>
        <mxCell id="0" />
        <mxCell id="1" parent="0" />
        <mxCell id="fXu-zx2hqorw0dzWZYp2-77" value="Asana(Illustrators)&amp;nbsp;" style="rounded=1;whiteSpace=wrap;html=1;fillColor=#f8cecc;strokeColor=#b85450;gradientColor=#ea6b66;shadow=1;" parent="1" vertex="1">
          <mxGeometry x="826" y="560" width="154" height="90" as="geometry" />
        </mxCell>
        <mxCell id="fXu-zx2hqorw0dzWZYp2-78" value="&lt;b&gt;&lt;font color=&quot;#ff0080&quot;&gt;PM&lt;/font&gt; assigned tasks to Illustrators (ASANA) according to current Milestone&lt;/b&gt;" style="ellipse;whiteSpace=wrap;html=1;fillColor=#fad9d5;strokeColor=#ae4132;shadow=1;" parent="1" vertex="1">
          <mxGeometry x="450" y="520" width="150" height="140" as="geometry" />
        </mxCell>
        <mxCell id="vcqUUj8RtbL1T8IDj6Kx-1" value="&lt;b&gt;&lt;font color=&quot;#ff0080&quot;&gt;Illustrators Lead&lt;/font&gt; assigned tasks according to project needs&lt;/b&gt;" style="ellipse;whiteSpace=wrap;html=1;aspect=fixed;fillColor=#b1ddf0;strokeColor=#10739e;shadow=1;" vertex="1" parent="1">
          <mxGeometry x="452" y="340" width="140" height="140" as="geometry" />
        </mxCell>
        <mxCell id="vcqUUj8RtbL1T8IDj6Kx-2" value="&lt;b&gt;&lt;font color=&quot;#ff0080&quot;&gt;Art Director&lt;/font&gt; assigned tasks according to project needs&lt;br&gt;&lt;/b&gt;" style="ellipse;whiteSpace=wrap;html=1;aspect=fixed;fillColor=#b1ddf0;strokeColor=#10739e;shadow=1;" vertex="1" parent="1">
          <mxGeometry x="451" y="700" width="140" height="140" as="geometry" />
        </mxCell>
        <mxCell id="vcqUUj8RtbL1T8IDj6Kx-6" value="" style="shape=curlyBracket;whiteSpace=wrap;html=1;rounded=1;flipH=1;labelPosition=right;verticalLabelPosition=middle;align=left;verticalAlign=middle;size=0.4;" vertex="1" parent="1">
          <mxGeometry x="590" y="420" width="240" height="360" as="geometry" />
        </mxCell>
        <mxCell id="vcqUUj8RtbL1T8IDj6Kx-12" value="" style="endArrow=none;html=1;rounded=0;entryX=0.1;entryY=0.5;entryDx=0;entryDy=0;entryPerimeter=0;" edge="1" parent="1" target="vcqUUj8RtbL1T8IDj6Kx-6">
          <mxGeometry width="50" height="50" relative="1" as="geometry">
            <mxPoint x="600" y="600" as="sourcePoint" />
            <mxPoint x="700" y="600" as="targetPoint" />
          </mxGeometry>
        </mxCell>
        <mxCell id="vcqUUj8RtbL1T8IDj6Kx-13" value="Actor" style="shape=umlActor;verticalLabelPosition=bottom;verticalAlign=top;html=1;outlineConnect=0;noLabel=1;fillColor=#fad9d5;strokeColor=#ae4132;" vertex="1" parent="1">
          <mxGeometry x="400" y="560" width="30" height="60" as="geometry" />
        </mxCell>
        <mxCell id="vcqUUj8RtbL1T8IDj6Kx-14" value="Actor" style="shape=umlActor;verticalLabelPosition=bottom;verticalAlign=top;html=1;outlineConnect=0;noLabel=1;fillColor=#b1ddf0;strokeColor=#10739e;" vertex="1" parent="1">
          <mxGeometry x="400" y="390" width="30" height="60" as="geometry" />
        </mxCell>
        <mxCell id="vcqUUj8RtbL1T8IDj6Kx-15" value="Actor" style="shape=umlActor;verticalLabelPosition=bottom;verticalAlign=top;html=1;outlineConnect=0;noLabel=1;fillColor=#b1ddf0;strokeColor=#10739e;" vertex="1" parent="1">
          <mxGeometry x="400" y="740" width="30" height="60" as="geometry" />
        </mxCell>
        <mxCell id="vcqUUj8RtbL1T8IDj6Kx-19" value="Tasks which relates to current&amp;nbsp;&lt;b&gt;Release Milestone&lt;/b&gt; scope of work will be splited by dependencies and assigned for Illustators by Illustrators Lead" style="rounded=0;whiteSpace=wrap;html=1;shadow=1;" vertex="1" parent="1">
          <mxGeometry x="950" y="390" width="320" height="80" as="geometry" />
        </mxCell>
        <mxCell id="vcqUUj8RtbL1T8IDj6Kx-33" style="edgeStyle=orthogonalEdgeStyle;rounded=0;orthogonalLoop=1;jettySize=auto;html=1;exitX=1.001;exitY=0.391;exitDx=0;exitDy=0;exitPerimeter=0;" edge="1" parent="1" source="vcqUUj8RtbL1T8IDj6Kx-19">
          <mxGeometry relative="1" as="geometry">
            <mxPoint x="1350" y="421" as="targetPoint" />
          </mxGeometry>
        </mxCell>
        <mxCell id="vcqUUj8RtbL1T8IDj6Kx-20" value="Task which is assigned by Art Director or Illustrators Lead not for the current Milestone will be marked by special epic with no dependencies.&amp;nbsp;" style="rounded=0;whiteSpace=wrap;html=1;shadow=1;" vertex="1" parent="1">
          <mxGeometry x="1040" y="700" width="360" height="90" as="geometry" />
        </mxCell>
        <mxCell id="vcqUUj8RtbL1T8IDj6Kx-22" value="Actor" style="shape=umlActor;verticalLabelPosition=bottom;verticalAlign=top;html=1;outlineConnect=0;noLabel=1;fillColor=#b1ddf0;strokeColor=#10739e;" vertex="1" parent="1">
          <mxGeometry x="1080" y="270" width="30" height="60" as="geometry" />
        </mxCell>
        <mxCell id="vcqUUj8RtbL1T8IDj6Kx-23" value="&lt;b&gt;Illustrators Lead&lt;/b&gt;" style="text;html=1;strokeColor=none;fillColor=none;align=center;verticalAlign=middle;whiteSpace=wrap;rounded=0;" vertex="1" parent="1">
          <mxGeometry x="1030" y="330" width="130" height="30" as="geometry" />
        </mxCell>
        <mxCell id="vcqUUj8RtbL1T8IDj6Kx-24" value="" style="endArrow=classic;html=1;rounded=0;exitX=0.5;exitY=1;exitDx=0;exitDy=0;" edge="1" parent="1" source="vcqUUj8RtbL1T8IDj6Kx-23">
          <mxGeometry width="50" height="50" relative="1" as="geometry">
            <mxPoint x="1310" y="450" as="sourcePoint" />
            <mxPoint x="1095" y="390" as="targetPoint" />
          </mxGeometry>
        </mxCell>
        <mxCell id="vcqUUj8RtbL1T8IDj6Kx-27" value="Finished Task from &lt;b&gt;PM/ Illustrators Lead&amp;nbsp;&lt;/b&gt;request will move to &quot;&lt;b&gt;Ready for Developmen&lt;/b&gt;t&quot; column&amp;nbsp; and automatically assigned for &lt;b&gt;PM&lt;/b&gt;. This task consist of all docs, links which needed." style="rounded=0;whiteSpace=wrap;html=1;fillColor=#dae8fc;strokeColor=#6c8ebf;" vertex="1" parent="1">
          <mxGeometry x="1360" y="390" width="290" height="80" as="geometry" />
        </mxCell>
        <mxCell id="vcqUUj8RtbL1T8IDj6Kx-28" value="1.Splited tasks by Milestone dependencies from Illustrators Lead will move to column &quot;&lt;b&gt;Done&lt;/b&gt;&quot;" style="rounded=0;whiteSpace=wrap;html=1;" vertex="1" parent="1">
          <mxGeometry x="1490" y="260" width="200" height="60" as="geometry" />
        </mxCell>
        <mxCell id="vcqUUj8RtbL1T8IDj6Kx-29" value="" style="endArrow=classic;html=1;rounded=0;entryX=0;entryY=0.5;entryDx=0;entryDy=0;" edge="1" parent="1" target="vcqUUj8RtbL1T8IDj6Kx-28">
          <mxGeometry width="50" height="50" relative="1" as="geometry">
            <mxPoint x="1400" y="380" as="sourcePoint" />
            <mxPoint x="1430" y="270" as="targetPoint" />
            <Array as="points">
              <mxPoint x="1400" y="290" />
            </Array>
          </mxGeometry>
        </mxCell>
        <mxCell id="vcqUUj8RtbL1T8IDj6Kx-30" value="2.General Task from PM will be closed by PM and moved to column &quot;Done&quot; when it moves to development team" style="rounded=0;whiteSpace=wrap;html=1;" vertex="1" parent="1">
          <mxGeometry x="1490" y="500" width="240" height="70" as="geometry" />
        </mxCell>
        <mxCell id="vcqUUj8RtbL1T8IDj6Kx-31" value="" style="endArrow=classic;html=1;rounded=0;exitX=0.172;exitY=1;exitDx=0;exitDy=0;exitPerimeter=0;entryX=0;entryY=0.5;entryDx=0;entryDy=0;" edge="1" parent="1" source="vcqUUj8RtbL1T8IDj6Kx-27" target="vcqUUj8RtbL1T8IDj6Kx-30">
          <mxGeometry width="50" height="50" relative="1" as="geometry">
            <mxPoint x="1430" y="620" as="sourcePoint" />
            <mxPoint x="1480" y="570" as="targetPoint" />
            <Array as="points">
              <mxPoint x="1410" y="535" />
            </Array>
          </mxGeometry>
        </mxCell>
        <mxCell id="vcqUUj8RtbL1T8IDj6Kx-34" value="Actor" style="shape=umlActor;verticalLabelPosition=bottom;verticalAlign=top;html=1;outlineConnect=0;noLabel=1;fillColor=#fad9d5;strokeColor=#ae4132;" vertex="1" parent="1">
          <mxGeometry x="1750" y="480" width="30" height="60" as="geometry" />
        </mxCell>
        <mxCell id="vcqUUj8RtbL1T8IDj6Kx-36" value="Actor" style="shape=umlActor;verticalLabelPosition=bottom;verticalAlign=top;html=1;outlineConnect=0;noLabel=1;fillColor=#b1ddf0;strokeColor=#10739e;" vertex="1" parent="1">
          <mxGeometry x="2164" y="560" width="30" height="60" as="geometry" />
        </mxCell>
        <mxCell id="vcqUUj8RtbL1T8IDj6Kx-37" value="&lt;b&gt;Illustrators Lead&lt;/b&gt;" style="text;html=1;strokeColor=none;fillColor=none;align=center;verticalAlign=middle;whiteSpace=wrap;rounded=0;" vertex="1" parent="1">
          <mxGeometry x="1670" y="320" width="130" height="30" as="geometry" />
        </mxCell>
        <mxCell id="vcqUUj8RtbL1T8IDj6Kx-38" value="&lt;b&gt;PM&lt;/b&gt;" style="text;html=1;strokeColor=none;fillColor=none;align=center;verticalAlign=middle;whiteSpace=wrap;rounded=0;" vertex="1" parent="1">
          <mxGeometry x="1700" y="540" width="130" height="30" as="geometry" />
        </mxCell>
        <mxCell id="vcqUUj8RtbL1T8IDj6Kx-42" value="Finished Tasks will move to Column &quot;Done&quot; and marked by specific Epics/Labels for future Releases." style="rounded=0;whiteSpace=wrap;html=1;shadow=1;" vertex="1" parent="1">
          <mxGeometry x="1560" y="700" width="340" height="90" as="geometry" />
        </mxCell>
        <mxCell id="vcqUUj8RtbL1T8IDj6Kx-43" value="Actor" style="shape=umlActor;verticalLabelPosition=bottom;verticalAlign=top;html=1;outlineConnect=0;noLabel=1;fillColor=#fad9d5;strokeColor=#ae4132;" vertex="1" parent="1">
          <mxGeometry x="880" y="330" width="30" height="60" as="geometry" />
        </mxCell>
        <mxCell id="vcqUUj8RtbL1T8IDj6Kx-44" value="" style="endArrow=classic;html=1;rounded=0;entryX=0;entryY=0.5;entryDx=0;entryDy=0;" edge="1" parent="1" target="vcqUUj8RtbL1T8IDj6Kx-19">
          <mxGeometry relative="1" as="geometry">
            <mxPoint x="880" y="560" as="sourcePoint" />
            <mxPoint x="890" y="420" as="targetPoint" />
            <Array as="points">
              <mxPoint x="880" y="430" />
            </Array>
          </mxGeometry>
        </mxCell>
        <mxCell id="vcqUUj8RtbL1T8IDj6Kx-45" value="" style="shape=message;html=1;outlineConnect=0;" vertex="1" parent="vcqUUj8RtbL1T8IDj6Kx-44">
          <mxGeometry width="20" height="14" relative="1" as="geometry">
            <mxPoint x="-10" y="-7" as="offset" />
          </mxGeometry>
        </mxCell>
        <mxCell id="vcqUUj8RtbL1T8IDj6Kx-46" value="&lt;i&gt;PM Tasks&lt;/i&gt;" style="text;html=1;strokeColor=none;fillColor=none;align=center;verticalAlign=middle;whiteSpace=wrap;rounded=0;" vertex="1" parent="1">
          <mxGeometry x="866" y="401" width="60" height="30" as="geometry" />
        </mxCell>
        <mxCell id="vcqUUj8RtbL1T8IDj6Kx-49" value="Actor" style="shape=umlActor;verticalLabelPosition=bottom;verticalAlign=top;html=1;outlineConnect=0;noLabel=1;fillColor=#b1ddf0;strokeColor=#10739e;" vertex="1" parent="1">
          <mxGeometry x="880" y="820" width="30" height="60" as="geometry" />
        </mxCell>
        <mxCell id="vcqUUj8RtbL1T8IDj6Kx-50" value="Actor" style="shape=umlActor;verticalLabelPosition=bottom;verticalAlign=top;html=1;outlineConnect=0;noLabel=1;fillColor=#b1ddf0;strokeColor=#10739e;" vertex="1" parent="1">
          <mxGeometry x="930" y="820" width="30" height="60" as="geometry" />
        </mxCell>
        <mxCell id="vcqUUj8RtbL1T8IDj6Kx-53" value="" style="endArrow=classic;html=1;rounded=0;" edge="1" parent="1">
          <mxGeometry relative="1" as="geometry">
            <mxPoint x="880" y="650" as="sourcePoint" />
            <mxPoint x="1040" y="750" as="targetPoint" />
            <Array as="points">
              <mxPoint x="880" y="750" />
            </Array>
          </mxGeometry>
        </mxCell>
        <mxCell id="vcqUUj8RtbL1T8IDj6Kx-54" value="" style="shape=message;html=1;outlineConnect=0;" vertex="1" parent="vcqUUj8RtbL1T8IDj6Kx-53">
          <mxGeometry width="20" height="14" relative="1" as="geometry">
            <mxPoint x="-10" y="-7" as="offset" />
          </mxGeometry>
        </mxCell>
        <mxCell id="vcqUUj8RtbL1T8IDj6Kx-55" value="&lt;i&gt;Art Director / Illustrators Lead tasks&lt;/i&gt;" style="text;html=1;strokeColor=none;fillColor=none;align=center;verticalAlign=middle;whiteSpace=wrap;rounded=0;" vertex="1" parent="1">
          <mxGeometry x="860" y="780" width="100" height="30" as="geometry" />
        </mxCell>
        <mxCell id="vcqUUj8RtbL1T8IDj6Kx-60" value="Actor" style="shape=umlActor;verticalLabelPosition=bottom;verticalAlign=top;html=1;outlineConnect=0;noLabel=1;fillColor=#b1ddf0;strokeColor=#10739e;" vertex="1" parent="1">
          <mxGeometry x="1720" y="250" width="30" height="60" as="geometry" />
        </mxCell>
        <mxCell id="vcqUUj8RtbL1T8IDj6Kx-63" value="" style="endArrow=classic;html=1;rounded=0;exitX=1;exitY=0.5;exitDx=0;exitDy=0;entryX=0;entryY=0.5;entryDx=0;entryDy=0;" edge="1" parent="1" source="vcqUUj8RtbL1T8IDj6Kx-20" target="vcqUUj8RtbL1T8IDj6Kx-42">
          <mxGeometry width="50" height="50" relative="1" as="geometry">
            <mxPoint x="1500" y="920" as="sourcePoint" />
            <mxPoint x="1550" y="870" as="targetPoint" />
          </mxGeometry>
        </mxCell>
        <mxCell id="vcqUUj8RtbL1T8IDj6Kx-64" value="Bug fixes/ UI Improvement tasks from Illustrators lead should be reletes to current Milestone with task dependencies&amp;nbsp;" style="rounded=0;whiteSpace=wrap;html=1;shadow=1;" vertex="1" parent="1">
          <mxGeometry x="1960" y="700" width="310" height="90" as="geometry" />
        </mxCell>
        <mxCell id="vcqUUj8RtbL1T8IDj6Kx-65" value="" style="endArrow=classic;html=1;rounded=0;" edge="1" parent="1">
          <mxGeometry width="50" height="50" relative="1" as="geometry">
            <mxPoint x="2130" y="690" as="sourcePoint" />
            <mxPoint x="1650" y="430" as="targetPoint" />
            <Array as="points">
              <mxPoint x="2130" y="430" />
            </Array>
          </mxGeometry>
        </mxCell>
        <mxCell id="vcqUUj8RtbL1T8IDj6Kx-67" value="&lt;b&gt;Illustrators Lead&lt;/b&gt;" style="text;html=1;strokeColor=none;fillColor=none;align=center;verticalAlign=middle;whiteSpace=wrap;rounded=0;" vertex="1" parent="1">
          <mxGeometry x="2120" y="630" width="130" height="30" as="geometry" />
        </mxCell>
        <mxCell id="vcqUUj8RtbL1T8IDj6Kx-72" value="Actor" style="shape=umlActor;verticalLabelPosition=bottom;verticalAlign=top;html=1;outlineConnect=0;noLabel=1;fillColor=#b1ddf0;strokeColor=#10739e;" vertex="1" parent="1">
          <mxGeometry x="1460" y="760" width="30" height="60" as="geometry" />
        </mxCell>
        <mxCell id="vcqUUj8RtbL1T8IDj6Kx-73" value="&lt;b&gt;Illustrators Lead&lt;/b&gt;" style="text;html=1;strokeColor=none;fillColor=none;align=center;verticalAlign=middle;whiteSpace=wrap;rounded=0;" vertex="1" parent="1">
          <mxGeometry x="1410" y="830" width="130" height="30" as="geometry" />
        </mxCell>
      </root>
    </mxGraphModel>
  </diagram>
</mxfile>
